<svg xmlns="http://www.w3.org/2000/svg" width="160" height="40" viewBox="0 0 160 40" role="img" aria-labelledby="logoTitle">
  <title id="logoTitle">SDAL</title>
  <defs>
    <linearGradient id="logoGrad" x1="0" y1="0" x2="1" y2="1">
      <stop offset="0%" stop-color="#ff875f"/>
      <stop offset="100%" stop-color="#41a08d"/>
    </linearGradient>
  </defs>
  <rect x="1" y="1" width="38" height="38" rx="10" fill="#10131a"/>
  <path d="M10 14c0-3.3 2.7-6 6-6h8.5v3.4H16a2.6 2.6 0 0 0 0 5.2h6.8c3.8 0 6.9 3 6.9 6.7 0 3.8-3.1 6.8-6.9 6.8h-9.3v-3.5h9.3a3.2 3.2 0 1 0 0-6.4H16c-3.3 0-6-2.8-6-6.2z" fill="url(#logoGrad)"/>
  <text x="48" y="27" fill="#f8fbff" font-family="Inter,Segoe UI,Arial,sans-serif" font-size="20" font-weight="700" letter-spacing="1">SDAL</text>
  <circle cx="147" cy="20" r="3" fill="#41a08d"/>
</svg>
